<svg
   xmlns:dc="http://purl.org/dc/elements/1.1/"
   xmlns:cc="http://creativecommons.org/ns#"
   xmlns:rdf="http://www.w3.org/1999/02/22-rdf-syntax-ns#"
   xmlns:svg="http://www.w3.org/2000/svg"
   xmlns="http://www.w3.org/2000/svg"
   viewBox="0 0 287.57251 67.720122"
   height="34"
   width="144"
   xml:space="preserve"
   version="1.1"
   id="svg3159"><metadata
     id="metadata3165"><rdf:RDF><cc:Work
         rdf:about=""><dc:format>image/svg+xml</dc:format><dc:type
           rdf:resource="http://purl.org/dc/dcmitype/StillImage" /><dc:title></dc:title></cc:Work></rdf:RDF></metadata><defs
     id="defs3163" /><g
     transform="matrix(1.25,0,0,-1.25,-133.08875,173.65125)"
     id="g3167"><g
       transform="scale(0.1,0.1)"
       id="g3169"><path
         id="path3171"
         style="fill:#ffffff;fill-opacity:1;fill-rule:nonzero;stroke:none"
         d="m 1254.32,1200.81 -73.81,0 0,-123.01 c 0,-11.99 0.31,-20.51 0.9,-25.51 0.6,-5 2.79,-9.29 6.6,-12.89 3.81,-3.59 9.7,-5.39 17.71,-5.39 l 45.59,1.2 3.61,-64.198 c -26.81,-6 -47.21,-9.012 -61.21,-9.012 -36,0 -60.6,8.109 -73.79,24.301 -13.2,16.209 -19.8,46.089 -19.8,89.709 l 0,124.8 -35.41,0 0,68.4 35.41,0 0,83.4 80.39,20 0,-103.4 73.81,0 0,-68.4" /><path
         id="path3173"
         style="fill:#ffffff;fill-opacity:1;fill-rule:nonzero;stroke:none"
         d="m 1483.52,1269.21 80.39,0 0,-299.999 -79.79,0 0,16.801 c -28.81,-16 -53.81,-24.012 -75,-24.012 -41.62,0 -69.61,11.512 -84,34.512 -14.42,22.988 -21.6,61.488 -21.6,115.488 l 0,157.21 80.39,0 0,-158.4 c 0,-29.61 2.4,-49.8 7.2,-60.6 4.81,-10.81 16.39,-16.2 34.81,-16.2 17.6,0 34.2,2.8 49.78,8.4 l 7.82,2.38 0,224.42" /><path
         id="path3175"
         style="fill:#ffffff;fill-opacity:1;fill-rule:nonzero;stroke:none"
         d="m 1618.3,969.211 0,299.999 79.81,0 0,-31.8 c 33.59,19.98 65.6,32.99 95.99,38.99 l 0,-81 c -32.4,-6.8 -60.19,-13.79 -83.4,-21 l -11.99,-4.19 0,-200.999 -80.41,0" /><path
         id="path3177"
         style="fill:#ffffff;fill-opacity:1;fill-rule:nonzero;stroke:none"
         d="m 1921.89,969.211 -80.39,0 0,299.999 79.81,0 0,-16.8 c 27.19,15.98 52.19,23.99 75,23.99 39.98,0 67.58,-11.8 82.79,-35.39 15.2,-23.62 22.79,-60 22.79,-109.2 l 0,-162.599 -80.39,0 0,160.189 c 0,25.59 -3,44.5 -9,56.7 -6,12.21 -18.01,18.3 -36,18.3 -16.4,0 -32.2,-2.81 -47.4,-8.39 l -7.21,-2.41 0,-224.389" /><path
         id="path3179"
         style="fill:#ffffff;fill-opacity:1;fill-rule:nonzero;stroke:none"
         d="m 2378.71,1194.21 c -49.61,6.39 -84.3,9.59 -104.1,9.59 -19.81,0 -32.6,-1.8 -38.4,-5.39 -5.8,-3.62 -8.71,-9.3 -8.71,-17.11 0,-7.79 3.91,-13.2 11.7,-16.19 7.81,-3.01 27.81,-7.4 60,-13.21 32.21,-5.8 55.1,-15.29 68.71,-28.49 13.59,-13.2 20.39,-34.61 20.39,-64.2 0,-64.812 -40.19,-97.21 -120.59,-97.21 -26.4,0 -58.43,3.602 -96.01,10.801 l -19.2,3.597 2.4,67.202 c 49.59,-6.4 84.1,-9.59 103.52,-9.59 19.39,0 32.58,1.88 39.59,5.69 6.99,3.81 10.51,9.51 10.51,17.11 0,7.59 -3.72,13.2 -11.12,16.79 -7.4,3.6 -26.6,7.99 -57.6,13.21 -31.01,5.19 -54.1,14 -69.29,26.4 -15.22,12.39 -22.81,34.5 -22.81,66.29 0,31.8 10.8,55.8 32.4,72.02 21.6,16.19 49.41,24.29 83.42,24.29 23.59,0 55.8,-3.81 96.6,-11.41 l 19.78,-3.59 -1.19,-66.6" /><path
         id="path3181"
         style="fill:#ffffff;fill-opacity:1;fill-rule:nonzero;stroke:none"
         d="m 2612.7,1200.81 -73.79,0 0,-123.01 c 0,-11.99 0.29,-20.51 0.89,-25.51 0.61,-5 2.8,-9.29 6.61,-12.89 3.79,-3.59 9.68,-5.39 17.69,-5.39 l 45.61,1.2 3.59,-64.198 c -26.8,-6 -47.21,-9.012 -61.19,-9.012 -36.02,0 -60.61,8.109 -73.81,24.301 -13.2,16.209 -19.8,46.089 -19.8,89.709 l 0,124.8 -35.39,0 0,68.4 35.39,0 0,83.4 80.41,20 0,-103.4 73.79,0 0,-68.4" /><path
         id="path3183"
         style="fill:#ffffff;fill-opacity:1;fill-rule:nonzero;stroke:none"
         d="m 2968.5,969.211 0,399.999 80.41,20 0,-419.999 -80.41,0" /><path
         id="path3185"
         style="fill:#ffffff;fill-opacity:1;fill-rule:nonzero;stroke:none"
         d="m 3286.09,1146.2 c 0,24.01 -3.8,40.7 -11.4,50.1 -7.6,9.39 -20.9,14.1 -39.9,14.1 -19.01,0 -32.41,-4.9 -40.2,-14.69 -7.79,-9.82 -11.89,-26.31 -12.3,-49.51 l 103.8,0 z m -88.49,-101.09 c 9.39,-8.21 22.89,-12.31 40.49,-12.31 37.2,0 70.41,1.21 99.61,3.6 l 16.79,1.81 1.19,-59.409 C 3309.69,967.609 3268.09,962 3230.9,962 c -45.22,0 -78.01,12.012 -98.4,36 -20.41,24 -30.61,63.01 -30.61,117.01 0,107.6 44.2,161.39 132.6,161.39 87.19,0 130.8,-45.2 130.8,-135.59 l -5.99,-55.8 -176.41,0 c 0.39,-18.42 5.29,-31.72 14.71,-39.9" /><path
         id="path3187"
         style="fill:#77d1c7;fill-opacity:1;fill-rule:nonzero;stroke:none"
         d="m 2780.25,969.211 -46.77,0 -88.28,299.199 79.12,0 64.66,-225.53" /><path
         id="path3189"
         style="fill:#ffffff;fill-opacity:1;fill-rule:nonzero;stroke:none"
         d="m 2784.06,1042.88 64.67,225.53 79.12,0 -124.12,-420.961 -78.53,0 38.49,127.871" /></g></g></svg>
